{
  "asset": {
    "version": "2.0",
    "generator": "quorum-animation-stub",
    "extras": {
      "description": "Subtle vertical bob simulating breathing",
      "placeholder": true
    }
  },
  "scene": 0,
  "scenes": [
    {
      "nodes": [
        0
      ]
    }
  ],
  "nodes": [
    {
      "name": "AnimRoot"
    }
  ],
  "animations": [
    {
      "name": "idle",
      "channels": [
        {
          "sampler": 0,
          "target": {
            "node": 0,
            "path": "translation"
          }
        }
      ],
      "samplers": [
        {
          "input": 0,
          "output": 1,
          "interpolation": "LINEAR"
        }
      ]
    }
  ],
  "accessors": [
    {
      "bufferView": 0,
      "byteOffset": 0,
      "componentType": 5126,
      "count": 3,
      "type": "SCALAR",
      "min": [
        0
      ],
      "max": [
        3
      ]
    },
    {
      "bufferView": 1,
      "byteOffset": 0,
      "componentType": 5126,
      "count": 3,
      "type": "VEC3",
      "min": [
        0,
        0,
        0
      ],
      "max": [
        0,
        0.02,
        0
      ]
    }
  ],
  "bufferViews": [
    {
      "buffer": 0,
      "byteOffset": 0,
      "byteLength": 12
    },
    {
      "buffer": 1,
      "byteOffset": 0,
      "byteLength": 36
    }
  ],
  "buffers": [
    {
      "uri": "data:application/octet-stream;base64,",
      "byteLength": 12
    },
    {
      "uri": "data:application/octet-stream;base64,",
      "byteLength": 36
    }
  ]
}